<svg height="511pt" viewBox="0 1 511 511.999" width="511pt" xmlns="http://www.w3.org/2000/svg"><path d="m236.308594 225.90625.109375-155.46875c0-17.074219-13.703125-30.453125-31.195313-30.453125-17.203125 0-31.199218 14.277344-31.199218 31.824219v.113281c0 21.222656-17.265626 38.484375-38.484376 38.484375h-3.925781c-6.925781 0-13.738281 2.882812-18.695312 7.902344-4.714844 4.773437-7.265625 10.921875-7.183594 17.3125.089844 7.101562 3.085937 13.609375 8.433594 18.332031 5.820312 5.136719 8.140625 13.179687 5.953125 20.625-2.191406 7.449219-8.496094 12.957031-16.171875 14.125l-19.6875 3c-24.933594 3.863281-43.777344 25.890625-43.777344 51.230469 0 28.59375 23.265625 51.859375 51.859375 51.859375 11.039062 0 19.992188 8.949219 19.992188 19.992187 0 11.039063-8.953126 19.992188-19.992188 19.992188-7.601562 0-14.988281-.9375-22.054688-2.683594-5.710937 6.519531-13.066406 18.101562-13.066406 34.476562 0 23.3125 18.964844 42.273438 42.277344 42.273438l1.738281.003906c23.78125.023438 44.921875 14.328125 53.917969 36.441406 6.605469 16.234376 21.949219 26.726563 39.09375 26.726563 7.105469 0 12.921875-1.09375 17.789062-3.339844 10.023438-4.632812 21.902344-.257812 26.53125 9.765625 4.628907 10.023438.257813 21.902344-9.765624 26.535156-10.234376 4.726563-21.539063 7.023438-34.554688 7.023438-33.484375 0-63.371094-20.273438-76.132812-51.644531-2.84375-6.996094-9.464844-11.519531-16.863282-11.523438l-1.757812-.003906c-45.355469 0-82.257813-36.898437-82.257813-82.257813 0-22.894531 8.140625-40.507812 16.765625-52.753906-20.449218-16.859375-33.503906-42.375-33.503906-70.882812 0-22.050782 7.933594-43.375 22.339844-60.039063 12.09375-13.984375 28.078125-23.957031 45.738281-28.6875-1.777344-5.808593-2.746094-11.890625-2.824219-18.070312-.222656-17.167969 6.421875-33.476563 18.707032-45.917969 12.417968-12.582031 29.605468-19.796875 47.152343-19.796875h2.4375c.738281-38.957031 32.378907-70.421875 71.167969-70.421875 18.992188 0 36.8125 7.199219 50.175781 20.269531.347657.339844.675781.695313 1.015625 1.042969.339844-.347656.667969-.703125 1.011719-1.042969 13.367187-13.070312 31.183594-20.269531 50.175781-20.269531 38.792969 0 70.433594 31.464844 71.167969 70.421875h2.613281c17.375 0 34.429688 7.128906 46.792969 19.558594 12.28125 12.347656 18.992187 28.566406 18.898437 45.667969-.035156 6.367187-1.011718 12.628906-2.84375 18.605468 30.210938 8.125 54.800782 31.539063 64.0625 61.816406 3.230469 10.5625-2.707031 21.738282-13.265624 24.96875-10.558594 3.230469-21.738282-2.707031-24.96875-13.265624-5.773438-18.875-22.09375-33.023438-41.566407-36.039063l-19.660156-3.035156c-7.664063-1.183594-13.953125-6.695313-16.132813-14.136719-2.183593-7.445312.140626-15.476562 5.953126-20.609375 5.324218-4.699219 8.398437-11.449219 8.4375-18.519531.035156-6.382813-2.546876-12.511719-7.265626-17.257813-4.910156-4.933593-11.632812-7.765625-18.441406-7.765625h-4.101562c-21.21875 0-38.484375-17.265625-38.484375-38.484375v-.117187c0-17.546875-13.992188-31.824219-31.195313-31.824219-17.492187 0-31.195312 13.378906-31.195312 30.457031l-.109375 155.492188c-.007813 11.039062-8.957031 19.980468-19.992188 19.980468-.003906 0-.007812 0-.015625 0-11.039062-.007812-19.984375-8.964843-19.976562-20.007812zm275.996094 150.953125c0 74.410156-60.535157 134.949219-134.945313 134.949219s-134.945313-60.539063-134.945313-134.949219c0-74.40625 60.535157-134.945313 134.945313-134.945313s134.945313 60.539063 134.945313 134.945313zm-39.980469 0c0-52.359375-42.601563-94.960937-94.964844-94.960937s-94.960937 42.601562-94.960937 94.960937c0 52.363281 42.597656 94.964844 94.960937 94.964844s94.964844-42.601563 94.964844-94.964844zm-54.980469-19.992187h-19.992188v-19.992188c0-11.039062-8.949218-19.992188-19.992187-19.992188s-19.992187 8.953126-19.992187 19.992188v19.992188h-19.992188c-11.042969 0-19.992188 8.953124-19.992188 19.992187 0 11.042969 8.949219 19.992187 19.992188 19.992187h19.992188v19.992188c0 11.042969 8.949218 19.992188 19.992187 19.992188s19.992187-8.949219 19.992187-19.992188v-19.992188h19.992188c11.042969 0 19.992188-8.949218 19.992188-19.992187 0-11.039063-8.953126-19.992187-19.992188-19.992187zm0 0"/></svg>