<svg height="464pt" viewBox="0 0 464 464" width="464pt" xmlns="http://www.w3.org/2000/svg"><path d="m440 272v-255.761719h24v279.761719h-216l-1.921875-.398438c1.253906-2.339843 1.914063-4.949218 1.921875-7.601562v-16zm0 0" fill="#00ccb3"/><path d="m248 0h192v272h-192zm0 0" fill="#e6e7e8"/><path d="m24 272h192v16c.003906 2.808594.75 5.570312 2.160156 8h-218.160156v-279.761719h24zm0 0" fill="#00ccb3"/><path d="m24 0h192v272h-192zm0 0" fill="#e6e7e8"/><path d="m400 336h-336c-4.417969 0-8 3.582031-8 8v112c0 4.417969 3.582031 8 8 8h336c4.417969 0 8-3.582031 8-8v-112c0-4.417969-3.582031-8-8-8zm0 0" fill="#ffa733"/><path d="m88 48v16h-32v-16c.027344-8.824219 7.175781-15.972656 16-16 8.808594.066406 15.933594 7.191406 16 16zm0 0" fill="#5aaae7"/><path d="m56 64h32v128h-32zm0 0" fill="#3d9ae2"/><path d="m88 200-16 40-16-40v-8h32zm0 0" fill="#1e81ce"/><path d="m246.078125 295.601562c-3.476563 6.445313-10.894531 9.707032-17.996094 7.910157-7.105469-1.792969-12.082031-8.183594-12.082031-15.511719v-272h32v272c-.007812 2.652344-.667969 5.261719-1.921875 7.601562zm0 0" fill="#ff9811"/><path d="m280 168h128v64h-128zm0 0" fill="#78b9eb"/><g fill="#ee8700"><path d="m112 424h224v16h-224zm0 0"/><path d="m352 424h32v16h-32zm0 0"/><path d="m80 424h16v16h-16zm0 0"/><path d="m112 392h16v16h-16zm0 0"/><path d="m80 392h16v16h-16zm0 0"/><path d="m144 392h16v16h-16zm0 0"/><path d="m176 392h16v16h-16zm0 0"/><path d="m208 392h16v16h-16zm0 0"/><path d="m240 392h16v16h-16zm0 0"/><path d="m272 392h16v16h-16zm0 0"/><path d="m304 392h16v16h-16zm0 0"/><path d="m336 392h16v16h-16zm0 0"/><path d="m368 392h16v16h-16zm0 0"/><path d="m112 360h16v16h-16zm0 0"/><path d="m80 360h16v16h-16zm0 0"/><path d="m144 360h16v16h-16zm0 0"/><path d="m176 360h16v16h-16zm0 0"/><path d="m208 360h16v16h-16zm0 0"/><path d="m240 360h16v16h-16zm0 0"/><path d="m272 360h16v16h-16zm0 0"/><path d="m304 360h16v16h-16zm0 0"/><path d="m336 360h16v16h-16zm0 0"/><path d="m368 360h16v16h-16zm0 0"/></g><path d="m112 32h48v16h-48zm0 0" fill="#acabb1"/><path d="m176 32h16v16h-16zm0 0" fill="#c6c5ca"/><path d="m112 64h80v16h-80zm0 0" fill="#c6c5ca"/><path d="m112 96h80v16h-80zm0 0" fill="#c6c5ca"/><path d="m112 128h80v16h-80zm0 0" fill="#c6c5ca"/><path d="m336 32h80v16h-80zm0 0" fill="#c6c5ca"/><path d="m272 32h48v16h-48zm0 0" fill="#acabb1"/><path d="m272 64h144v16h-144zm0 0" fill="#c6c5ca"/><path d="m272 96h144v16h-144zm0 0" fill="#c6c5ca"/><path d="m272 128h144v16h-144zm0 0" fill="#c6c5ca"/><path d="m112 160h80v16h-80zm0 0" fill="#c6c5ca"/><path d="m112 192h80v16h-80zm0 0" fill="#c6c5ca"/><path d="m112 224h80v16h-80zm0 0" fill="#c6c5ca"/><path d="m336 192h16v16h-16zm0 0" fill="#1e81ce"/><path d="m368 192h16v16h-16zm0 0" fill="#1e81ce"/><path d="m304 192h16v16h-16zm0 0" fill="#1e81ce"/><path d="m448 320h16v16h-16zm0 0" fill="#ffa733"/><path d="m448 352h16v16h-16zm0 0" fill="#ffa733"/><path d="m456 424h-24v-16h16v-24h16v32c0 4.417969-3.582031 8-8 8zm0 0" fill="#ffa733"/><path d="m0 320h16v16h-16zm0 0" fill="#ffa733"/><path d="m0 352h16v16h-16zm0 0" fill="#ffa733"/><path d="m32 424h-24c-4.417969 0-8-3.582031-8-8v-32h16v24h16zm0 0" fill="#ffa733"/></svg>